<svg xmlns="http://www.w3.org/2000/svg" viewBox="0 0 714.21289 476.33838"><defs><style>.cls-1{font-size:204px;font-family:Steps-Mono-Thin, Steps-Mono;font-weight:200;}.cls-1,.cls-2{fill:#fff;}</style></defs><g id="Layer_2" data-name="Layer 2"><g id="Layer_1-2" data-name="Layer 1"><text class="cls-1" transform="translate(0 182.57764)">Joe Cee</text><polyline class="cls-2" points="288.245 172.784 437.375 21.43 442.476 31.628"/><polyline class="cls-2" points="418.405 162.788 437.375 182.575 288.245 182.575"/><polygon points="4.471 4.92 15.652 25.069 18.023 1.069 20.395 25.069 22.768 1.069 25.136 25.069 27.508 1.069 29.882 25.069 32.256 1.069 34.631 25.069 37.01 1.069 30.601 21.241 51.389 15.627 27.389 18.183 51.389 20.74 27.389 23.299 51.389 25.852 27.389 28.409 51.389 30.968 27.389 33.528 51.389 36.088 27.389 38.653 48.197 49.366 37.016 29.217 34.645 53.217 32.273 29.217 29.9 53.217 27.531 29.217 25.16 53.217 22.786 29.217 20.412 53.217 18.037 29.217 15.658 53.217 22.066 33.045 1.279 38.66 25.279 36.103 1.279 33.546 25.279 30.987 1.279 28.434 25.279 25.878 1.279 23.318 25.279 20.758 1.279 18.198 23.279 9 4.471 4.92"/><path class="cls-2" d="M420.21289,54.05018v0Z"/><polyline class="cls-2" points="420.213 48.389 420.213 83.565 288.245 172.784"/><path class="cls-2" d="M288.24512,177.131l131.96777-75.66466v12"/><polyline class="cls-2" points="288.245 179.726 420.213 125.466 420.213 135.393 420.213 143.466"/><polygon points="471.943 5.087 483.124 25.236 485.495 1.236 487.867 25.236 490.241 1.236 492.609 25.236 494.98 1.236 497.354 25.236 499.728 1.236 502.103 25.236 504.482 1.236 498.074 21.409 518.861 15.794 494.861 18.35 518.861 20.908 494.861 23.466 518.861 26.019 494.861 28.576 518.861 31.135 494.861 33.695 518.861 36.256 494.861 38.82 515.67 49.534 504.488 29.385 502.117 53.385 499.745 29.385 497.372 53.385 495.004 29.385 492.632 53.385 490.258 29.385 487.884 53.385 485.509 29.385 483.13 53.385 489.539 33.212 468.752 38.827 492.752 36.271 468.752 33.713 492.752 31.155 468.752 28.602 492.752 26.045 468.752 23.486 492.752 20.926 468.752 18.365 490.751 9.167 471.943 5.087"/><rect class="cls-2" x="138.21289" y="119.46631" width="30" height="6"/><rect class="cls-2" x="150.21289" y="113.46631" width="6" height="18"/><polyline class="cls-2" points="696.245 172.784 696.245 182.575 714.213 182.575 714.213 172.784"/></g></g></svg>