<svg xmlns="http://www.w3.org/2000/svg" viewBox="0 0 800.14063 317.55957"><defs><style>.cls-1{font-size:136px;font-family:Steps-Mono-Thin, Steps-Mono;font-weight:200;}.cls-1,.cls-2{fill:#fff;}</style></defs><g id="Layer_2" data-name="Layer 2"><g id="Layer_1-2" data-name="Layer 1"><text class="cls-1" transform="translate(0 121.71875)">Joe Cee</text><polyline class="cls-2" points="192.162 115.191 291.582 14.289 294.982 21.088"/><polyline class="cls-2" points="278.936 108.527 291.582 121.719 192.162 121.719"/><polygon points="2.977 3.285 10.433 16.715 12.01 0.715 13.588 16.715 15.17 0.715 16.75 16.715 18.332 0.715 19.916 16.715 21.497 0.715 23.082 16.715 24.67 0.715 20.403 14.166 34.258 10.42 18.258 12.124 34.258 13.824 18.258 15.53 34.258 17.233 18.258 18.938 34.258 20.645 18.258 22.349 34.258 24.058 18.258 25.769 32.133 32.91 24.676 19.48 23.099 35.48 21.522 19.48 19.939 35.48 18.359 19.48 16.777 35.48 15.194 19.48 13.612 35.48 12.027 19.48 10.439 35.48 14.706 22.029 0.852 25.775 16.852 24.071 0.852 22.371 16.852 20.666 0.852 18.963 16.852 17.258 0.852 15.551 16.852 13.846 0.852 12.137 15.517 6.002 2.977 3.285"/><path class="cls-2" d="M280.14062,36.03573v0Z"/><polyline class="cls-2" points="280.141 32.262 280.141 55.712 192.162 115.191"/><path class="cls-2" d="M192.16211,118.08959l87.97851-50.44311v8"/><polyline class="cls-2" points="192.162 119.82 280.141 83.646 280.141 90.264 280.141 95.646"/><polygon points="314.625 3.397 322.081 16.826 323.659 0.826 325.236 16.826 326.818 0.826 328.398 16.826 329.98 0.826 331.564 16.826 333.145 0.826 334.73 16.826 336.318 0.826 332.051 14.278 345.906 10.532 329.906 12.236 345.906 13.936 329.906 15.641 345.906 17.344 329.906 19.049 345.906 20.756 329.906 22.461 345.906 24.169 329.906 25.881 343.781 33.022 336.324 19.592 334.747 35.592 333.17 19.592 331.587 35.592 330.008 19.592 328.426 35.592 326.842 19.592 325.26 35.592 323.675 19.592 322.087 35.592 326.355 22.14 312.5 25.887 328.5 24.183 312.5 22.483 328.5 20.777 312.5 19.074 328.5 17.369 312.5 15.662 328.5 13.958 312.5 12.249 327.165 6.114 314.625 3.397"/><rect class="cls-2" x="92.14063" y="79.64648" width="20" height="4"/><rect class="cls-2" x="100.14063" y="75.64648" width="4" height="12"/><polyline class="cls-2" points="464.162 115.191 464.162 121.719 476.141 121.719 476.141 115.191"/></g></g></svg>