<svg xmlns="http://www.w3.org/2000/svg" viewBox="0 0 357.10547 238.16943"><defs><style>.cls-1{font-size:102px;font-family:Steps-Mono-Thin, Steps-Mono;font-weight:200;}.cls-1,.cls-2{fill:#fff;}</style></defs><g id="Layer_2" data-name="Layer 2"><g id="Layer_1-2" data-name="Layer 1"><text class="cls-1" transform="translate(0 91.28906)">Joe Cee</text><polyline class="cls-2" points="144.122 86.393 218.687 10.716 221.237 15.815"/><polyline class="cls-2" points="209.202 81.395 218.687 91.289 144.122 91.289"/><polygon points="2.231 2.465 7.824 12.536 9.007 0.536 10.19 12.536 11.377 0.536 12.562 12.536 13.749 0.536 14.936 12.536 16.123 0.536 17.311 12.536 18.502 0.536 15.304 10.627 25.693 7.814 13.693 9.089 25.693 10.365 13.693 11.644 25.693 12.922 13.693 14.201 25.693 15.481 13.693 16.76 25.693 18.042 13.693 19.326 24.101 24.68 18.508 14.61 17.325 26.61 16.142 14.61 14.955 26.61 13.77 14.61 12.583 26.61 11.396 14.61 10.209 26.61 9.021 14.61 7.83 26.61 11.028 16.519 0.639 19.332 12.639 18.056 0.639 16.781 12.639 15.501 0.639 14.224 12.639 12.945 0.639 11.664 12.639 10.385 0.639 9.103 11.637 4.5 2.231 2.465"/><path class="cls-2" d="M210.10547,27.02631v0Z"/><polyline class="cls-2" points="210.105 24.196 210.105 41.783 144.122 86.393"/><path class="cls-2" d="M144.12158,88.56671l65.98389-37.83234v6"/><polyline class="cls-2" points="144.122 89.864 210.105 62.734 210.105 67.698 210.105 71.734"/><polygon points="235.967 2.549 241.56 12.619 242.743 0.619 243.926 12.619 245.113 0.619 246.298 12.619 247.485 0.619 248.673 12.619 249.859 0.619 251.047 12.619 252.238 0.619 249.04 10.71 259.429 7.898 247.429 9.173 259.429 10.448 247.429 11.728 259.429 13.005 247.429 14.285 259.429 15.565 247.429 16.844 259.429 18.126 247.429 19.41 257.838 24.764 252.244 14.694 251.061 26.694 249.878 14.694 248.691 26.694 247.506 14.694 246.32 26.694 245.132 14.694 243.945 26.694 242.757 14.694 241.566 26.694 244.764 16.603 234.375 19.415 246.375 18.14 234.375 16.865 246.375 15.585 234.375 14.308 246.375 13.028 234.375 11.748 246.375 10.469 234.375 9.187 245.373 4.584 235.967 2.549"/><rect class="cls-2" x="69.10547" y="59.73438" width="15" height="3"/><rect class="cls-2" x="75.10547" y="56.73438" width="3" height="9"/><polyline class="cls-2" points="348.122 86.393 348.122 91.289 357.105 91.289 357.105 86.393"/></g></g></svg>