<svg xmlns="http://www.w3.org/2000/svg" viewBox="0 0 1000 800">
  <defs>
    <style>
      .cls-1{font-size:34px;font-family:Steps-Mono-Thin, Steps-Mono;font-weight:200;}.cls-1,.cls-2{fill:#fff;}
    </style>
  </defs>
  
  <g id="Layer_2" data-name="Layer 2">
    <g id="Layer_1-2" data-name="Layer 1">
      <text class="cls-1" transform="translate(0 30.42969)">
        Joe Cee
      </text>

      <polyline class="cls-2" points="48.041 28.798 72.896 3.572 73.746 5.272"/>
      <polyline class="cls-2" points="69.734 27.132 72.896 30.43 48.041 30.43"/>
      <polygon points="0.739 0.826 2.608 4.179 3.001 0.179 3.392 4.179 3.783 0.179 4.178 4.179 4.574 0.179 4.97 4.179 5.367 0.179 5.766 4.179 6.165 0.179 5.105 3.547 8.564 2.605 4.564 3.028 8.564 3.45 4.564 3.872 8.564 4.297 4.564 4.724 8.564 5.151 4.564 5.579 8.564 6.009 4.564 6.439 8.038 8.222 6.169 4.87 5.776 8.87 5.385 4.87 4.994 8.87 4.6 4.87 4.203 8.87 3.808 4.87 3.41 8.87 3.012 4.87 2.612 8.87 3.672 5.502 0.213 6.444 4.213 6.021 0.213 5.599 4.213 5.177 0.213 4.752 4.213 4.325 0.213 3.898 4.213 3.469 0.213 3.04 3.878 1.501 0.739 0.826"/>
      <path class="cls-2" d="M70.03516,9.00893v0Z"/>
      <polyline class="cls-2" points="70.035 8.065 70.035 13.928 48.041 28.798"/>
      <path class="cls-2" d="M48.04053,29.5224,70.03516,16.91162v2"/>
      <polyline class="cls-2" points="48.041 29.955 70.035 20.912 70.035 22.566 70.035 23.912"/>
      <polygon points="78.651 0.854 80.52 4.207 80.913 0.207 81.304 4.207 81.695 0.207 82.09 4.207 82.486 0.207 82.882 4.207 83.279 0.207 83.678 4.207 84.077 0.207 83.017 3.575 86.476 2.633 82.476 3.056 86.476 3.478 82.476 3.9 86.476 4.325 82.476 4.752 86.476 5.179 82.476 5.607 86.476 6.037 82.476 6.467 85.95 8.25 84.081 4.898 83.689 8.898 83.298 4.898 82.906 8.898 82.512 4.898 82.115 8.898 81.72 4.898 81.322 8.898 80.924 4.898 80.524 8.898 81.584 5.53 78.125 6.472 82.125 6.049 78.125 5.627 82.125 5.205 78.125 4.78 82.125 4.353 78.125 3.926 82.125 3.497 78.125 3.068 81.79 1.529 78.651 0.854"/>
      <rect class="cls-2" x="23.03516" y="19.91162" width="5" height="1"/>
      <rect class="cls-2" x="25.03516" y="18.91162" width="1" height="3"/>
      <polyline class="cls-2" points="116.041 28.798 116.041 30.43 119.035 30.43 119.035 28.798"/>
    </g>
  </g>
</svg>