<svg xmlns="http://www.w3.org/2000/svg" xmlns:xlink="http://www.w3.org/1999/xlink" viewBox="0 0 1454.91751 838.90717"><defs><style>.cls-1,.cls-2,.cls-4{fill:none;}.cls-1,.cls-4{stroke:#e1f229;}.cls-1{stroke-width:12px;}.cls-2{stroke-width:17px;stroke:url(#linear-gradient);}.cls-3{fill:#f5f1fe;}.cls-4{stroke-width:22.8508px;}</style><linearGradient id="linear-gradient" x1="543.59095" y1="713.74539" x2="891.59094" y2="703.74539" gradientTransform="matrix(1, 0, 0, -1, 0, 999.79287)" gradientUnits="userSpaceOnUse"><stop offset="0.13452" stop-color="#eee8fd"/><stop offset="0.52058" stop-color="#f8fccf"/></linearGradient></defs><g id="Layer_2" data-name="Layer 2"><g id="Layer_1-2" data-name="Layer 1"><path class="cls-1" d="M436.50472,420.12245l10.253,13.833a42.38178,42.38178,0,0,0,54.743,11.613c44.899-25.09,101.592-55.44,156.653-81.747,56.713-27.095,87.603-24.409,109.353-9.898l32,26.199c6.33008,8.834,21.20008,25.8,30,23,12-14-37.5,49,14,48l8-.5,21,.5"/><path class="cls-1" d="M261.52669,201.10444l215,35m-215-35s44.246-49.901,84-73.335m-84,73.335c-65.835-8.156-105.364-9.934-127.486-9.087-16.27.624-31.558,8.488-45.939,16.123h0a96.14955,96.14955,0,0,0-31.338,26.575l-8.864,11.607a99.26035,99.26035,0,0,0-20.373,60.246v9.094a51.60428,51.60428,0,0,0,3.621,18.987h0a51.59137,51.59137,0,0,0,19.122,23.783l8.257,5.569m418-127.897,73-49s-131,60-143-38c-5.079-41.475-31.83-38.53-61-21.335m131,108.335c-86,55.896-299,49.897-215,89.396m84-197.731,109-63.665c69-36,280-113,369,5"/><path class="cls-1" d="M547.52669,188.36143c42.635-38.131,144.475-102.598,210.75-55.424,82.84,58.968,33.91,93.753,116.29,106.66"/><path class="cls-2" d="M486.52669,361.68342c13-12,130-97,192.5-122,77.68995-31.075,206.5-22,184.5-7"/><path class="cls-3" d="M456.13369,225.38944c114.893,21.167,140.537,174.351,38.803,231.783l-273.113,154.182c-75.507,42.626-170.419-2.696-184.735-88.214l-35.324-211.004c-14.317-85.518,60.659-159.28,145.932-143.571Z"/><path class="cls-1" d="M547.52669,188.46543c42.635-38.131,144.475-102.599,210.75-55.424,82.84,58.967,33.91,93.753,116.29,106.66"/><path class="cls-1" d="M549.52669,189.00044s-131,60-143-38c-5.079-41.475-31.83-38.53-61-21.335l109-63.665c69-36,280-113,369,5,101,123,78,102.896,101.5,102.896s27.33,9,31,11"/><path class="cls-3" d="M1349.97118,166.38267A105.042,105.042,0,0,1,1453.52669,271.11l1.39037,462.43185a105.04143,105.04143,0,0,1-106.50647,105.3546l-462.31837-6.48321A105.04272,105.04272,0,0,1,782.52669,727.68491L781.14622,265.253A105.03523,105.03523,0,0,1,887.65269,159.89643Z"/><path class="cls-4" d="M1330.70343,206.32272a84.49572,84.49572,0,0,1,83.32326,84.22l1.25946,422.1281a84.49558,84.49558,0,0,1-85.69222,84.72561L907.35,791.47012a84.49572,84.49572,0,0,1-83.32327-84.22L822.76724,285.121a84.4947,84.4947,0,0,1,85.69222-84.72461Z"/><path d="M1333.52368,216.84914a75.03762,75.03762,0,0,1,74.003,74.78953l1.27093,424.01906a75.04552,75.04552,0,0,1-76.11451,75.2387l-424.1534-5.95276a75.03758,75.03758,0,0,1-74.003-74.78948l-1.2708-424.02012a75.04285,75.04285,0,0,1,76.10437-75.23764Z"/></g></g></svg>